<svg xmlns="http://www.w3.org/2000/svg" width="1920" height="1080"><path d="M-61,1298L-218,1314L137,1292Z" fill="#8493ac" stroke="#8493ac" stroke-width="1.51"/><path d="M137,1292L-218,1314L532,1318Z" fill="#7c8ca8" stroke="#7c8ca8" stroke-width="1.51"/><path d="M-3,-212L452,-208L616,-226Z" fill="#e4e1ef" stroke="#e4e1ef" stroke-width="1.51"/><path d="M616,-226L923,-240L1136,-266Z" fill="#bfd0e6" stroke="#bfd0e6" stroke-width="1.51"/><path d="M-3,-212L616,-226L1136,-266Z" fill="#d6daeb" stroke="#d6daeb" stroke-width="1.51"/><path d="M1136,-266L1364,-242L1646,-229Z" fill="#9fbada" stroke="#9fbada" stroke-width="1.51"/><path d="M1136,-266L1646,-229L1888,-212Z" fill="#98afd5" stroke="#98afd5" stroke-width="1.51"/><path d="M1970,-5L2061,90L2075,-110Z" fill="#7d8fac" stroke="#7d8fac" stroke-width="1.51"/><path d="M1449,1317L1168,1329L2109,1317Z" fill="#035688" stroke="#035688" stroke-width="1.51"/><path d="M1786,1284L1670,1291L2109,1317Z" fill="#044e7b" stroke="#044e7b" stroke-width="1.51"/><path d="M1670,1291L1449,1317L2109,1317Z" fill="#035280" stroke="#035280" stroke-width="1.51"/><path d="M1913,1272L1786,1284L2109,1317Z" fill="#034a75" stroke="#034a75" stroke-width="1.51"/><path d="M2061,90L2048,287L2117,509Z" fill="#617ea0" stroke="#617ea0" stroke-width="1.51"/><path d="M2048,287L2050,379L2117,509Z" fill="#567a9e" stroke="#567a9e" stroke-width="1.51"/><path d="M2075,-110L2061,90L2117,509Z" fill="#6e83a2" stroke="#6e83a2" stroke-width="1.51"/><path d="M2076,-190L2075,-110L2117,509Z" fill="#7687a4" stroke="#7687a4" stroke-width="1.51"/><path d="M2045,806L1961,864L2126,941Z" fill="#116090" stroke="#116090" stroke-width="1.51"/><path d="M2117,509L2058,668L2126,941Z" fill="#266891" stroke="#266891" stroke-width="1.51"/><path d="M2058,668L2045,806L2126,941Z" fill="#18638f" stroke="#18638f" stroke-width="1.51"/><path d="M1913,1272L2109,1317L2137,1192Z" fill="#03466e" stroke="#03466e" stroke-width="1.51"/><path d="M1903,1179L1913,1272L2137,1192Z" fill="#034e7a" stroke="#034e7a" stroke-width="1.51"/><path d="M2126,941L1902,1001L2137,1192Z" fill="#045585" stroke="#045585" stroke-width="1.51"/><path d="M1902,1001L1903,1179L2137,1192Z" fill="#035585" stroke="#035585" stroke-width="1.51"/><path d="M2117,509L2126,941L2137,1192Z" fill="#0f5b89" stroke="#0f5b89" stroke-width="1.51"/><path d="M1883,555L2058,668L2117,509Z" fill="#3e749d" stroke="#3e749d" stroke-width="1.51"/><path d="M1961,864L1902,1001L2126,941Z" fill="#075e92" stroke="#075e92" stroke-width="1.51"/><path d="M1967,96L2048,287L2061,90Z" fill="#7187a8" stroke="#7187a8" stroke-width="1.51"/><path d="M2050,379L1946,390L2117,509Z" fill="#527ba0" stroke="#527ba0" stroke-width="1.51"/><path d="M1946,390L1883,555L2117,509Z" fill="#4c7ba3" stroke="#4c7ba3" stroke-width="1.51"/><path d="M1967,96L1925,277L2048,287Z" fill="#6c87ab" stroke="#6c87ab" stroke-width="1.51"/><path d="M1919,722L2045,806L2058,668Z" fill="#236c99" stroke="#236c99" stroke-width="1.51"/><path d="M1970,-5L1967,96L2061,90Z" fill="#7a8ead" stroke="#7a8ead" stroke-width="1.51"/><path d="M1888,-212L2075,-110L2076,-190Z" fill="#8696b2" stroke="#8696b2" stroke-width="1.51"/><path d="M1888,-212L1970,-5L2075,-110Z" fill="#8696b4" stroke="#8696b4" stroke-width="1.51"/><path d="M2048,287L1946,390L2050,379Z" fill="#5c7fa4" stroke="#5c7fa4" stroke-width="1.51"/><path d="M1883,555L1919,722L2058,668Z" fill="#3474a1" stroke="#3474a1" stroke-width="1.51"/><path d="M1925,277L1946,390L2048,287Z" fill="#6284a9" stroke="#6284a9" stroke-width="1.51"/><path d="M1919,722L1961,864L2045,806Z" fill="#1b6a99" stroke="#1b6a99" stroke-width="1.51"/><path d="M1798,-169L1822,-7L1888,-212Z" fill="#8ca0c1" stroke="#8ca0c1" stroke-width="1.51"/><path d="M1902,1001L1808,1125L1903,1179Z" fill="#045c91" stroke="#045c91" stroke-width="1.51"/><path d="M1883,555L1807,685L1919,722Z" fill="#3479a9" stroke="#3479a9" stroke-width="1.51"/><path d="M1919,722L1795,785L1961,864Z" fill="#1d6fa2" stroke="#1d6fa2" stroke-width="1.51"/><path d="M1749,79L1925,277L1967,96Z" fill="#7791b6" stroke="#7791b6" stroke-width="1.51"/><path d="M1822,-7L1967,96L1970,-5Z" fill="#7f94b6" stroke="#7f94b6" stroke-width="1.51"/><path d="M1888,-212L1822,-7L1970,-5Z" fill="#879bbc" stroke="#879bbc" stroke-width="1.51"/><path d="M1822,-7L1749,79L1967,96Z" fill="#8097bc" stroke="#8097bc" stroke-width="1.51"/><path d="M1811,1032L1808,1125L1902,1001Z" fill="#046097" stroke="#046097" stroke-width="1.51"/><path d="M1749,79L1747,290L1925,277Z" fill="#7291ba" stroke="#7291ba" stroke-width="1.51"/><path d="M1795,785L1902,1001L1961,864Z" fill="#11699e" stroke="#11699e" stroke-width="1.51"/><path d="M1747,290L1730,348L1925,277Z" fill="#688db8" stroke="#688db8" stroke-width="1.51"/><path d="M1757,531L1883,555L1946,390Z" fill="#4e83af" stroke="#4e83af" stroke-width="1.51"/><path d="M1730,348L1757,531L1946,390Z" fill="#5988b4" stroke="#5988b4" stroke-width="1.51"/><path d="M1925,277L1730,348L1946,390Z" fill="#6389b3" stroke="#6389b3" stroke-width="1.51"/><path d="M1646,-229L1798,-169L1888,-212Z" fill="#91a5c7" stroke="#91a5c7" stroke-width="1.51"/><path d="M1795,785L1811,1032L1902,1001Z" fill="#0767a0" stroke="#0767a0" stroke-width="1.51"/><path d="M1903,1179L1786,1284L1913,1272Z" fill="#035281" stroke="#035281" stroke-width="1.51"/><path d="M1807,685L1795,785L1919,722Z" fill="#2576a8" stroke="#2576a8" stroke-width="1.51"/><path d="M1808,1125L1786,1284L1903,1179Z" fill="#045889" stroke="#045889" stroke-width="1.51"/><path d="M1795,785L1630,952L1811,1032Z" fill="#0b6ba6" stroke="#0b6ba6" stroke-width="1.51"/><path d="M1757,531L1807,685L1883,555Z" fill="#407fae" stroke="#407fae" stroke-width="1.51"/><path d="M1676,268L1747,290L1749,79Z" fill="#7595bf" stroke="#7595bf" stroke-width="1.51"/><path d="M1655,580L1686,698L1757,531Z" fill="#4083b5" stroke="#4083b5" stroke-width="1.51"/><path d="M1686,698L1795,785L1807,685Z" fill="#287aad" stroke="#287aad" stroke-width="1.51"/><path d="M1757,531L1686,698L1807,685Z" fill="#397fb1" stroke="#397fb1" stroke-width="1.51"/><path d="M1670,1291L1786,1284L1808,1125Z" fill="#035789" stroke="#035789" stroke-width="1.51"/><path d="M1641,1095L1670,1291L1808,1125Z" fill="#045e94" stroke="#045e94" stroke-width="1.51"/><path d="M1641,1095L1808,1125L1811,1032Z" fill="#046299" stroke="#046299" stroke-width="1.51"/><path d="M1647,42L1749,79L1822,-7Z" fill="#849cc3" stroke="#849cc3" stroke-width="1.51"/><path d="M1798,-169L1584,-65L1822,-7Z" fill="#8ca2c6" stroke="#8ca2c6" stroke-width="1.51"/><path d="M1584,-65L1647,42L1822,-7Z" fill="#89a1c7" stroke="#89a1c7" stroke-width="1.51"/><path d="M1589,825L1630,952L1795,785Z" fill="#1873ad" stroke="#1873ad" stroke-width="1.51"/><path d="M1630,952L1641,1095L1811,1032Z" fill="#0567a1" stroke="#0567a1" stroke-width="1.51"/><path d="M1646,-229L1584,-65L1798,-169Z" fill="#91a7cb" stroke="#91a7cb" stroke-width="1.51"/><path d="M1730,348L1638,354L1757,531Z" fill="#5d8cbb" stroke="#5d8cbb" stroke-width="1.51"/><path d="M1686,698L1589,825L1795,785Z" fill="#2179af" stroke="#2179af" stroke-width="1.51"/><path d="M1647,42L1676,268L1749,79Z" fill="#7f9ac3" stroke="#7f9ac3" stroke-width="1.51"/><path d="M1638,354L1655,580L1757,531Z" fill="#528ab9" stroke="#528ab9" stroke-width="1.51"/><path d="M1676,268L1730,348L1747,290Z" fill="#6b90bd" stroke="#6b90bd" stroke-width="1.51"/><path d="M1647,42L1501,144L1676,268Z" fill="#7e9cc7" stroke="#7e9cc7" stroke-width="1.51"/><path d="M1676,268L1638,354L1730,348Z" fill="#6991bf" stroke="#6991bf" stroke-width="1.51"/><path d="M1485,360L1465,555L1638,354Z" fill="#5f93c4" stroke="#5f93c4" stroke-width="1.51"/><path d="M1529,-162L1584,-65L1646,-229Z" fill="#94abd1" stroke="#94abd1" stroke-width="1.51"/><path d="M1638,354L1465,555L1655,580Z" fill="#538dbf" stroke="#538dbf" stroke-width="1.51"/><path d="M1641,1095L1487,1132L1670,1291Z" fill="#05629a" stroke="#05629a" stroke-width="1.51"/><path d="M1501,144L1470,233L1676,268Z" fill="#789bc9" stroke="#789bc9" stroke-width="1.51"/><path d="M1655,580L1454,695L1686,698Z" fill="#3884b8" stroke="#3884b8" stroke-width="1.51"/><path d="M1454,695L1589,825L1686,698Z" fill="#2680b7" stroke="#2680b7" stroke-width="1.51"/><path d="M1364,-242L1529,-162L1646,-229Z" fill="#99b1d6" stroke="#99b1d6" stroke-width="1.51"/><path d="M1487,1132L1449,1317L1670,1291Z" fill="#075f93" stroke="#075f93" stroke-width="1.51"/><path d="M1470,233L1638,354L1676,268Z" fill="#6f96c5" stroke="#6f96c5" stroke-width="1.51"/><path d="M1589,825L1536,863L1630,952Z" fill="#1474b1" stroke="#1474b1" stroke-width="1.51"/><path d="M1470,233L1485,360L1638,354Z" fill="#6e98c7" stroke="#6e98c7" stroke-width="1.51"/><path d="M1630,952L1502,950L1641,1095Z" fill="#056caa" stroke="#056caa" stroke-width="1.51"/><path d="M1465,555L1454,695L1655,580Z" fill="#438abe" stroke="#438abe" stroke-width="1.51"/><path d="M1502,950L1487,1132L1641,1095Z" fill="#076ba7" stroke="#076ba7" stroke-width="1.51"/><path d="M1584,-65L1468,-29L1647,42Z" fill="#8ca6cf" stroke="#8ca6cf" stroke-width="1.51"/><path d="M1468,-29L1501,144L1647,42Z" fill="#88a4ce" stroke="#88a4ce" stroke-width="1.51"/><path d="M1536,863L1502,950L1630,952Z" fill="#0d72b1" stroke="#0d72b1" stroke-width="1.51"/><path d="M1454,695L1536,863L1589,825Z" fill="#227eb7" stroke="#227eb7" stroke-width="1.51"/><path d="M1529,-162L1468,-29L1584,-65Z" fill="#92abd2" stroke="#92abd2" stroke-width="1.51"/><path d="M1333,1280L1168,1329L1449,1317Z" fill="#1a6490" stroke="#1a6490" stroke-width="1.51"/><path d="M1352,512L1465,555L1485,360Z" fill="#5b96c5" stroke="#5b96c5" stroke-width="1.51"/><path d="M1379,362L1352,512L1485,360Z" fill="#669ac7" stroke="#669ac7" stroke-width="1.51"/><path d="M1299,1029L1487,1132L1502,950Z" fill="#1672ac" stroke="#1672ac" stroke-width="1.51"/><path d="M1330,875L1502,950L1536,863Z" fill="#1c7ab5" stroke="#1c7ab5" stroke-width="1.51"/><path d="M1454,695L1330,875L1536,863Z" fill="#2681b9" stroke="#2681b9" stroke-width="1.51"/><path d="M1341,1187L1449,1317L1487,1132Z" fill="#14679b" stroke="#14679b" stroke-width="1.51"/><path d="M1364,-242L1468,-29L1529,-162Z" fill="#98b2d6" stroke="#98b2d6" stroke-width="1.51"/><path d="M1364,-242L1312,-38L1468,-29Z" fill="#98b5d7" stroke="#98b5d7" stroke-width="1.51"/><path d="M1470,233L1379,362L1485,360Z" fill="#709cc9" stroke="#709cc9" stroke-width="1.51"/><path d="M1468,-29L1281,61L1501,144Z" fill="#8caad1" stroke="#8caad1" stroke-width="1.51"/><path d="M1330,875L1299,1029L1502,950Z" fill="#1c79b5" stroke="#1c79b5" stroke-width="1.51"/><path d="M1281,61L1470,233L1501,144Z" fill="#85a6cf" stroke="#85a6cf" stroke-width="1.51"/><path d="M1341,1187L1333,1280L1449,1317Z" fill="#176695" stroke="#176695" stroke-width="1.51"/><path d="M1326,685L1330,875L1454,695Z" fill="#3089bd" stroke="#3089bd" stroke-width="1.51"/><path d="M1326,685L1454,695L1465,555Z" fill="#428dc0" stroke="#428dc0" stroke-width="1.51"/><path d="M1312,-38L1281,61L1468,-29Z" fill="#93b1d5" stroke="#93b1d5" stroke-width="1.51"/><path d="M1281,61L1298,261L1470,233Z" fill="#83a8cf" stroke="#83a8cf" stroke-width="1.51"/><path d="M1299,1029L1341,1187L1487,1132Z" fill="#1a70a7" stroke="#1a70a7" stroke-width="1.51"/><path d="M866,1238L532,1318L1168,1329Z" fill="#4c779c" stroke="#4c779c" stroke-width="1.51"/><path d="M1352,512L1326,685L1465,555Z" fill="#4d93c3" stroke="#4d93c3" stroke-width="1.51"/><path d="M1298,261L1379,362L1470,233Z" fill="#76a2cc" stroke="#76a2cc" stroke-width="1.51"/><path d="M-3,-212L129,-192L452,-208Z" fill="#ece7f2" stroke="#ece7f2" stroke-width="1.51"/><path d="M1281,61L1211,230L1298,261Z" fill="#87add2" stroke="#87add2" stroke-width="1.51"/><path d="M1326,685L1226,681L1330,875Z" fill="#348ebf" stroke="#348ebf" stroke-width="1.51"/><path d="M1226,681L1326,685L1352,512Z" fill="#4a95c3" stroke="#4a95c3" stroke-width="1.51"/><path d="M1136,-266L1312,-38L1364,-242Z" fill="#a0bedb" stroke="#a0bedb" stroke-width="1.51"/><path d="M1160,417L1352,512L1379,362Z" fill="#67a0ca" stroke="#67a0ca" stroke-width="1.51"/><path d="M1298,261L1160,417L1379,362Z" fill="#73a5cd" stroke="#73a5cd" stroke-width="1.51"/><path d="M1136,-266L1089,-167L1312,-38Z" fill="#a5c1dd" stroke="#a5c1dd" stroke-width="1.51"/><path d="M1089,-167L1134,-46L1312,-38Z" fill="#a2bedb" stroke="#a2bedb" stroke-width="1.51"/><path d="M1226,681L1171,839L1330,875Z" fill="#358cbf" stroke="#358cbf" stroke-width="1.51"/><path d="M1299,1029L1190,1182L1341,1187Z" fill="#2075a8" stroke="#2075a8" stroke-width="1.51"/><path d="M1230,1019L1299,1029L1330,875Z" fill="#227db5" stroke="#227db5" stroke-width="1.51"/><path d="M1148,492L1226,681L1352,512Z" fill="#589bc7" stroke="#589bc7" stroke-width="1.51"/><path d="M1160,417L1148,492L1352,512Z" fill="#66a1ca" stroke="#66a1ca" stroke-width="1.51"/><path d="M1230,1019L1190,1182L1299,1029Z" fill="#267aae" stroke="#267aae" stroke-width="1.51"/><path d="M1190,1182L1333,1280L1341,1187Z" fill="#1e6e9e" stroke="#1e6e9e" stroke-width="1.51"/><path d="M789,1236L532,1318L866,1238Z" fill="#597ea3" stroke="#597ea3" stroke-width="1.51"/><path d="M1171,839L1230,1019L1330,875Z" fill="#2b83ba" stroke="#2b83ba" stroke-width="1.51"/><path d="M1190,1182L1168,1329L1333,1280Z" fill="#246c98" stroke="#246c98" stroke-width="1.51"/><path d="M1173,77L1211,230L1281,61Z" fill="#91b2d4" stroke="#91b2d4" stroke-width="1.51"/><path d="M1211,230L1160,417L1298,261Z" fill="#7ca9d0" stroke="#7ca9d0" stroke-width="1.51"/><path d="M1134,-46L1281,61L1312,-38Z" fill="#98b7d8" stroke="#98b7d8" stroke-width="1.51"/><path d="M1134,-46L1173,77L1281,61Z" fill="#99b7d8" stroke="#99b7d8" stroke-width="1.51"/><path d="M129,-192L297,-187L452,-208Z" fill="#e6e3f0" stroke="#e6e3f0" stroke-width="1.51"/><path d="M1002,1237L866,1238L1168,1329Z" fill="#3e759d" stroke="#3e759d" stroke-width="1.51"/><path d="M1076,1003L1039,1108L1190,1182Z" fill="#397eaf" stroke="#397eaf" stroke-width="1.51"/><path d="M1089,399L1160,417L1211,230Z" fill="#7daad0" stroke="#7daad0" stroke-width="1.51"/><path d="M1081,233L1089,399L1211,230Z" fill="#86aed2" stroke="#86aed2" stroke-width="1.51"/><path d="M1173,77L1081,233L1211,230Z" fill="#8fb2d4" stroke="#8fb2d4" stroke-width="1.51"/><path d="M1011,688L1171,839L1226,681Z" fill="#4795c4" stroke="#4795c4" stroke-width="1.51"/><path d="M1148,492L1011,688L1226,681Z" fill="#5a9dc8" stroke="#5a9dc8" stroke-width="1.51"/><path d="M1076,1003L1190,1182L1230,1019Z" fill="#317db0" stroke="#317db0" stroke-width="1.51"/><path d="M1171,839L1076,1003L1230,1019Z" fill="#3584bb" stroke="#3584bb" stroke-width="1.51"/><path d="M996,541L1011,688L1148,492Z" fill="#68a3cb" stroke="#68a3cb" stroke-width="1.51"/><path d="M1089,-167L1064,-116L1134,-46Z" fill="#aac3de" stroke="#aac3de" stroke-width="1.51"/><path d="M1005,888L1076,1003L1171,839Z" fill="#418abe" stroke="#418abe" stroke-width="1.51"/><path d="M1134,-46L1066,70L1173,77Z" fill="#9ebbd9" stroke="#9ebbd9" stroke-width="1.51"/><path d="M1066,70L1081,233L1173,77Z" fill="#99b7d7" stroke="#99b7d7" stroke-width="1.51"/><path d="M1002,1237L1168,1329L1190,1182Z" fill="#33729d" stroke="#33729d" stroke-width="1.51"/><path d="M1039,1108L1002,1237L1190,1182Z" fill="#3a7aa8" stroke="#3a7aa8" stroke-width="1.51"/><path d="M1011,688L1005,888L1171,839Z" fill="#4b93c2" stroke="#4b93c2" stroke-width="1.51"/><path d="M1089,399L1148,492L1160,417Z" fill="#73a7cd" stroke="#73a7cd" stroke-width="1.51"/><path d="M1089,399L996,541L1148,492Z" fill="#72a7ce" stroke="#72a7ce" stroke-width="1.51"/><path d="M1064,-116L1066,70L1134,-46Z" fill="#a5bfdc" stroke="#a5bfdc" stroke-width="1.51"/><path d="M923,-240L1089,-167L1136,-266Z" fill="#b2c9e2" stroke="#b2c9e2" stroke-width="1.51"/><path d="M1064,-116L829,-103L1066,70Z" fill="#aec5df" stroke="#aec5df" stroke-width="1.51"/><path d="M867,225L846,385L1081,233Z" fill="#96b6d7" stroke="#96b6d7" stroke-width="1.51"/><path d="M1066,70L871,122L1081,233Z" fill="#9fbad9" stroke="#9fbad9" stroke-width="1.51"/><path d="M871,122L867,225L1081,233Z" fill="#9fbad9" stroke="#9fbad9" stroke-width="1.51"/><path d="M931,518L996,541L1089,399Z" fill="#77a9d0" stroke="#77a9d0" stroke-width="1.51"/><path d="M1081,233L846,385L1089,399Z" fill="#8ab0d4" stroke="#8ab0d4" stroke-width="1.51"/><path d="M846,385L931,518L1089,399Z" fill="#82aed2" stroke="#82aed2" stroke-width="1.51"/><path d="M923,-240L1064,-116L1089,-167Z" fill="#b2c8e1" stroke="#b2c8e1" stroke-width="1.51"/><path d="M903,724L903,854L1005,888Z" fill="#5797c5" stroke="#5797c5" stroke-width="1.51"/><path d="M903,724L1005,888L1011,688Z" fill="#569ac6" stroke="#569ac6" stroke-width="1.51"/><path d="M829,-103L871,122L1066,70Z" fill="#aec3df" stroke="#aec3df" stroke-width="1.51"/><path d="M1005,888L918,956L1076,1003Z" fill="#488bbf" stroke="#488bbf" stroke-width="1.51"/><path d="M918,956L1039,1108L1076,1003Z" fill="#4586b8" stroke="#4586b8" stroke-width="1.51"/><path d="M923,-240L829,-103L1064,-116Z" fill="#b8cbe3" stroke="#b8cbe3" stroke-width="1.51"/><path d="M897,1185L1002,1237L1039,1108Z" fill="#457eaa" stroke="#457eaa" stroke-width="1.51"/><path d="M918,956L897,1185L1039,1108Z" fill="#4a85b4" stroke="#4a85b4" stroke-width="1.51"/><path d="M996,541L931,518L1011,688Z" fill="#6da5cd" stroke="#6da5cd" stroke-width="1.51"/><path d="M931,518L903,724L1011,688Z" fill="#68a3cb" stroke="#68a3cb" stroke-width="1.51"/><path d="M616,-226L724,-182L923,-240Z" fill="#c9d4e8" stroke="#c9d4e8" stroke-width="1.51"/><path d="M903,854L918,956L1005,888Z" fill="#5191c2" stroke="#5191c2" stroke-width="1.51"/><path d="M897,1185L866,1238L1002,1237Z" fill="#497ca6" stroke="#497ca6" stroke-width="1.51"/><path d="M773,1113L897,1185L918,956Z" fill="#5387b6" stroke="#5387b6" stroke-width="1.51"/><path d="M829,-103L742,55L871,122Z" fill="#b6c7e1" stroke="#b6c7e1" stroke-width="1.51"/><path d="M716,981L773,1113L918,956Z" fill="#5b8dbd" stroke="#5b8dbd" stroke-width="1.51"/><path d="M846,385L758,523L931,518Z" fill="#87b0d4" stroke="#87b0d4" stroke-width="1.51"/><path d="M769,680L903,724L931,518Z" fill="#70a6cd" stroke="#70a6cd" stroke-width="1.51"/><path d="M758,523L769,680L931,518Z" fill="#7cabd1" stroke="#7cabd1" stroke-width="1.51"/><path d="M773,346L846,385L867,225Z" fill="#9ab8d8" stroke="#9ab8d8" stroke-width="1.51"/><path d="M903,724L745,861L903,854Z" fill="#609ac7" stroke="#609ac7" stroke-width="1.51"/><path d="M903,854L745,861L918,956Z" fill="#5b94c4" stroke="#5b94c4" stroke-width="1.51"/><path d="M724,-182L829,-103L923,-240Z" fill="#c1d0e5" stroke="#c1d0e5" stroke-width="1.51"/><path d="M745,861L716,981L918,956Z" fill="#5f93c4" stroke="#5f93c4" stroke-width="1.51"/><path d="M769,680L745,861L903,724Z" fill="#68a1ca" stroke="#68a1ca" stroke-width="1.51"/><path d="M768,-96L742,55L829,-103Z" fill="#becce3" stroke="#becce3" stroke-width="1.51"/><path d="M789,1236L866,1238L897,1185Z" fill="#507ea7" stroke="#507ea7" stroke-width="1.51"/><path d="M773,1113L789,1236L897,1185Z" fill="#5483ae" stroke="#5483ae" stroke-width="1.51"/><path d="M717,265L773,346L867,225Z" fill="#a2bbda" stroke="#a2bbda" stroke-width="1.51"/><path d="M717,265L867,225L871,122Z" fill="#a8bedc" stroke="#a8bedc" stroke-width="1.51"/><path d="M742,55L717,265L871,122Z" fill="#b0c2de" stroke="#b0c2de" stroke-width="1.51"/><path d="M724,-182L768,-96L829,-103Z" fill="#c3d0e5" stroke="#c3d0e5" stroke-width="1.51"/><path d="M773,346L758,523L846,385Z" fill="#92b4d6" stroke="#92b4d6" stroke-width="1.51"/><path d="M628,193L717,265L742,55Z" fill="#b4c4df" stroke="#b4c4df" stroke-width="1.51"/><path d="M615,856L745,861L769,680Z" fill="#6ea1cb" stroke="#6ea1cb" stroke-width="1.51"/><path d="M583,664L615,856L769,680Z" fill="#78a7ce" stroke="#78a7ce" stroke-width="1.51"/><path d="M758,523L626,511L769,680Z" fill="#85afd3" stroke="#85afd3" stroke-width="1.51"/><path d="M626,511L583,664L769,680Z" fill="#85aed2" stroke="#85aed2" stroke-width="1.51"/><path d="M626,511L758,523L773,346Z" fill="#93b5d6" stroke="#93b5d6" stroke-width="1.51"/><path d="M590,402L626,511L773,346Z" fill="#9cb9d8" stroke="#9cb9d8" stroke-width="1.51"/><path d="M773,1113L637,1151L789,1236Z" fill="#5d87b1" stroke="#5d87b1" stroke-width="1.51"/><path d="M637,1151L532,1318L789,1236Z" fill="#6183a9" stroke="#6183a9" stroke-width="1.51"/><path d="M567,-12L742,55L768,-96Z" fill="#c3cde4" stroke="#c3cde4" stroke-width="1.51"/><path d="M717,265L590,402L773,346Z" fill="#a3bcdb" stroke="#a3bcdb" stroke-width="1.51"/><path d="M716,981L636,1010L773,1113Z" fill="#638fbd" stroke="#638fbd" stroke-width="1.51"/><path d="M636,1010L637,1151L773,1113Z" fill="#648db9" stroke="#648db9" stroke-width="1.51"/><path d="M724,-182L567,-12L768,-96Z" fill="#c8d1e7" stroke="#c8d1e7" stroke-width="1.51"/><path d="M583,135L628,193L742,55Z" fill="#bcc7e1" stroke="#bcc7e1" stroke-width="1.51"/><path d="M615,856L716,981L745,861Z" fill="#6a99c7" stroke="#6a99c7" stroke-width="1.51"/><path d="M616,-226L567,-12L724,-182Z" fill="#ced5e9" stroke="#ced5e9" stroke-width="1.51"/><path d="M567,-12L583,135L742,55Z" fill="#c2cbe3" stroke="#c2cbe3" stroke-width="1.51"/><path d="M615,856L636,1010L716,981Z" fill="#6b96c6" stroke="#6b96c6" stroke-width="1.51"/><path d="M628,193L590,402L717,265Z" fill="#acc0dd" stroke="#acc0dd" stroke-width="1.51"/><path d="M248,1247L137,1292L532,1318Z" fill="#7689a8" stroke="#7689a8" stroke-width="1.51"/><path d="M583,664L483,812L615,856Z" fill="#7ca7cf" stroke="#7ca7cf" stroke-width="1.51"/><path d="M452,-208L567,-12L616,-226Z" fill="#d4d8ea" stroke="#d4d8ea" stroke-width="1.51"/><path d="M462,645L583,664L626,511Z" fill="#8eb2d5" stroke="#8eb2d5" stroke-width="1.51"/><path d="M418,246L590,402L628,193Z" fill="#b4c3df" stroke="#b4c3df" stroke-width="1.51"/><path d="M615,856L483,1032L636,1010Z" fill="#7197c6" stroke="#7197c6" stroke-width="1.51"/><path d="M483,1032L389,1131L637,1151Z" fill="#7292bb" stroke="#7292bb" stroke-width="1.51"/><path d="M389,1131L474,1273L637,1151Z" fill="#6f8db3" stroke="#6f8db3" stroke-width="1.51"/><path d="M474,1273L532,1318L637,1151Z" fill="#6885a9" stroke="#6885a9" stroke-width="1.51"/><path d="M636,1010L483,1032L637,1151Z" fill="#6d91bd" stroke="#6d91bd" stroke-width="1.51"/><path d="M452,-208L407,-80L567,-12Z" fill="#d7d9eb" stroke="#d7d9eb" stroke-width="1.51"/><path d="M483,812L483,1032L615,856Z" fill="#789eca" stroke="#789eca" stroke-width="1.51"/><path d="M590,402L403,435L626,511Z" fill="#a1bbda" stroke="#a1bbda" stroke-width="1.51"/><path d="M583,135L418,246L628,193Z" fill="#bdc8e1" stroke="#bdc8e1" stroke-width="1.51"/><path d="M388,574L462,645L626,511Z" fill="#97b6d7" stroke="#97b6d7" stroke-width="1.51"/><path d="M403,435L388,574L626,511Z" fill="#a0bada" stroke="#a0bada" stroke-width="1.51"/><path d="M567,-12L452,86L583,135Z" fill="#c8cee5" stroke="#c8cee5" stroke-width="1.51"/><path d="M474,1273L248,1247L532,1318Z" fill="#7086a7" stroke="#7086a7" stroke-width="1.51"/><path d="M452,86L418,246L583,135Z" fill="#c5cbe2" stroke="#c5cbe2" stroke-width="1.51"/><path d="M462,645L483,812L583,664Z" fill="#86aed2" stroke="#86aed2" stroke-width="1.51"/><path d="M418,246L403,435L590,402Z" fill="#b1c2de" stroke="#b1c2de" stroke-width="1.51"/><path d="M407,-80L452,86L567,-12Z" fill="#d1d4e8" stroke="#d1d4e8" stroke-width="1.51"/><path d="M268,987L483,1032L483,812Z" fill="#7f9ecb" stroke="#7f9ecb" stroke-width="1.51"/><path d="M319,100L418,246L452,86Z" fill="#cccfe5" stroke="#cccfe5" stroke-width="1.51"/><path d="M263,642L266,845L462,645Z" fill="#93b3d5" stroke="#93b3d5" stroke-width="1.51"/><path d="M389,1131L329,1181L474,1273Z" fill="#768eb3" stroke="#768eb3" stroke-width="1.51"/><path d="M268,987L389,1131L483,1032Z" fill="#7d99c2" stroke="#7d99c2" stroke-width="1.51"/><path d="M266,845L268,987L483,812Z" fill="#87a6cf" stroke="#87a6cf" stroke-width="1.51"/><path d="M462,645L266,845L483,812Z" fill="#89add1" stroke="#89add1" stroke-width="1.51"/><path d="M337,512L388,574L403,435Z" fill="#a7bedb" stroke="#a7bedb" stroke-width="1.51"/><path d="M290,371L403,435L418,246Z" fill="#b9c5e0" stroke="#b9c5e0" stroke-width="1.51"/><path d="M407,-80L282,-9L452,86Z" fill="#d7d7e9" stroke="#d7d7e9" stroke-width="1.51"/><path d="M282,-9L319,100L452,86Z" fill="#d5d5e8" stroke="#d5d5e8" stroke-width="1.51"/><path d="M329,1181L248,1247L474,1273Z" fill="#778cae" stroke="#778cae" stroke-width="1.51"/><path d="M338,243L290,371L418,246Z" fill="#c1cae2" stroke="#c1cae2" stroke-width="1.51"/><path d="M319,100L338,243L418,246Z" fill="#c9cde4" stroke="#c9cde4" stroke-width="1.51"/><path d="M297,-187L407,-80L452,-208Z" fill="#e0deed" stroke="#e0deed" stroke-width="1.51"/><path d="M388,574L263,642L462,645Z" fill="#9ab7d8" stroke="#9ab7d8" stroke-width="1.51"/><path d="M297,-187L282,-9L407,-80Z" fill="#e0dded" stroke="#e0dded" stroke-width="1.51"/><path d="M290,371L337,512L403,435Z" fill="#b0c2de" stroke="#b0c2de" stroke-width="1.51"/><path d="M268,987L329,1181L389,1131Z" fill="#7e97bf" stroke="#7e97bf" stroke-width="1.51"/><path d="M337,512L263,642L388,574Z" fill="#a2bcda" stroke="#a2bcda" stroke-width="1.51"/><path d="M263,642L153,690L266,845Z" fill="#96b6d6" stroke="#96b6d6" stroke-width="1.51"/><path d="M268,987L176,1129L329,1181Z" fill="#829ac0" stroke="#829ac0" stroke-width="1.51"/><path d="M290,371L170,435L337,512Z" fill="#b4c5e0" stroke="#b4c5e0" stroke-width="1.51"/><path d="M170,435L263,642L337,512Z" fill="#abc1dd" stroke="#abc1dd" stroke-width="1.51"/><path d="M319,100L114,255L338,243Z" fill="#ced1e6" stroke="#ced1e6" stroke-width="1.51"/><path d="M114,255L290,371L338,243Z" fill="#c5cde4" stroke="#c5cde4" stroke-width="1.51"/><path d="M103,-85L282,-9L297,-187Z" fill="#e4e1ef" stroke="#e4e1ef" stroke-width="1.51"/><path d="M112,54L114,255L319,100Z" fill="#d8d7ea" stroke="#d8d7ea" stroke-width="1.51"/><path d="M176,1129L248,1247L329,1181Z" fill="#7e94b7" stroke="#7e94b7" stroke-width="1.51"/><path d="M129,-192L103,-85L297,-187Z" fill="#eae5f1" stroke="#eae5f1" stroke-width="1.51"/><path d="M282,-9L112,54L319,100Z" fill="#dbdaeb" stroke="#dbdaeb" stroke-width="1.51"/><path d="M170,435L81,501L263,642Z" fill="#afc4df" stroke="#afc4df" stroke-width="1.51"/><path d="M131,867L136,971L266,845Z" fill="#8eaad1" stroke="#8eaad1" stroke-width="1.51"/><path d="M266,845L136,971L268,987Z" fill="#8aa5ce" stroke="#8aa5ce" stroke-width="1.51"/><path d="M114,255L170,435L290,371Z" fill="#c1cce4" stroke="#c1cce4" stroke-width="1.51"/><path d="M81,501L153,690L263,642Z" fill="#a6bfdc" stroke="#a6bfdc" stroke-width="1.51"/><path d="M153,690L131,867L266,845Z" fill="#92b1d5" stroke="#92b1d5" stroke-width="1.51"/><path d="M136,971L176,1129L268,987Z" fill="#88a0c8" stroke="#88a0c8" stroke-width="1.51"/><path d="M103,-85L112,54L282,-9Z" fill="#e3dfee" stroke="#e3dfee" stroke-width="1.51"/><path d="M176,1129L137,1292L248,1247Z" fill="#7f93b3" stroke="#7f93b3" stroke-width="1.51"/><path d="M112,54L25,107L114,255Z" fill="#dcdaeb" stroke="#dcdaeb" stroke-width="1.51"/><path d="M-12,821L131,867L153,690Z" fill="#98b6d7" stroke="#98b6d7" stroke-width="1.51"/><path d="M-56,357L81,501L170,435Z" fill="#becde4" stroke="#becde4" stroke-width="1.51"/><path d="M24,265L-56,357L170,435Z" fill="#c8d1e6" stroke="#c8d1e6" stroke-width="1.51"/><path d="M114,255L24,265L170,435Z" fill="#c9d1e6" stroke="#c9d1e6" stroke-width="1.51"/><path d="M136,971L-7,972L176,1129Z" fill="#8ca4ca" stroke="#8ca4ca" stroke-width="1.51"/><path d="M-7,972L-47,1183L176,1129Z" fill="#8ca2c5" stroke="#8ca2c5" stroke-width="1.51"/><path d="M-47,1183L137,1292L176,1129Z" fill="#8599b8" stroke="#8599b8" stroke-width="1.51"/><path d="M81,501L-50,716L153,690Z" fill="#a8c1dd" stroke="#a8c1dd" stroke-width="1.51"/><path d="M-50,716L-12,821L153,690Z" fill="#9dbcda" stroke="#9dbcda" stroke-width="1.51"/><path d="M-36,491L-50,716L81,501Z" fill="#b1c7e1" stroke="#b1c7e1" stroke-width="1.51"/><path d="M103,-85L-56,-7L112,54Z" fill="#e7e3f0" stroke="#e7e3f0" stroke-width="1.51"/><path d="M25,107L24,265L114,255Z" fill="#d6d8ea" stroke="#d6d8ea" stroke-width="1.51"/><path d="M-3,-212L103,-85L129,-192Z" fill="#efeaf3" stroke="#efeaf3" stroke-width="1.51"/><path d="M131,867L-7,972L136,971Z" fill="#90a9d1" stroke="#90a9d1" stroke-width="1.51"/><path d="M-47,1183L-61,1298L137,1292Z" fill="#8495b2" stroke="#8495b2" stroke-width="1.51"/><path d="M-56,357L-36,491L81,501Z" fill="#bfcee4" stroke="#bfcee4" stroke-width="1.51"/><path d="M-12,821L-7,972L131,867Z" fill="#95afd4" stroke="#95afd4" stroke-width="1.51"/><path d="M-56,-7L25,107L112,54Z" fill="#e4e1ee" stroke="#e4e1ee" stroke-width="1.51"/><path d="M-3,-212L-56,-7L103,-85Z" fill="#efe9f3" stroke="#efe9f3" stroke-width="1.51"/><path d="M-172,570L-50,716L-36,491Z" fill="#b1c8e1" stroke="#b1c8e1" stroke-width="1.51"/><path d="M-172,984L-47,1183L-7,972Z" fill="#92a7cb" stroke="#92a7cb" stroke-width="1.51"/><path d="M-12,821L-137,872L-7,972Z" fill="#98b2d5" stroke="#98b2d5" stroke-width="1.51"/><path d="M-150,-192L-56,-7L-3,-212Z" fill="#f3ecf6" stroke="#f3ecf6" stroke-width="1.51"/><path d="M-56,-7L-211,128L25,107Z" fill="#e6e2ef" stroke="#e6e2ef" stroke-width="1.51"/><path d="M-211,128L-173,202L25,107Z" fill="#e1e0ee" stroke="#e1e0ee" stroke-width="1.51"/><path d="M-173,202L24,265L25,107Z" fill="#dbdbec" stroke="#dbdbec" stroke-width="1.51"/><path d="M-173,202L-56,357L24,265Z" fill="#d3d8ea" stroke="#d3d8ea" stroke-width="1.51"/><path d="M-150,-192L-201,-87L-56,-7Z" fill="#f3ecf5" stroke="#f3ecf5" stroke-width="1.51"/><path d="M-172,984L-156,1178L-47,1183Z" fill="#91a5c5" stroke="#91a5c5" stroke-width="1.51"/><path d="M-56,357L-134,397L-36,491Z" fill="#c5d1e6" stroke="#c5d1e6" stroke-width="1.51"/><path d="M-137,872L-172,984L-7,972Z" fill="#96aed4" stroke="#96aed4" stroke-width="1.51"/><path d="M-50,716L-137,872L-12,821Z" fill="#9db9d9" stroke="#9db9d9" stroke-width="1.51"/><path d="M-173,202L-134,397L-56,357Z" fill="#d0d7ea" stroke="#d0d7ea" stroke-width="1.51"/><path d="M-170,718L-137,872L-50,716Z" fill="#a0bddb" stroke="#a0bddb" stroke-width="1.51"/><path d="M-172,570L-170,718L-50,716Z" fill="#aac4df" stroke="#aac4df" stroke-width="1.51"/><path d="M-156,1178L-61,1298L-47,1183Z" fill="#8a9bb8" stroke="#8a9bb8" stroke-width="1.51"/><path d="M-134,397L-172,570L-36,491Z" fill="#becfe5" stroke="#becfe5" stroke-width="1.51"/><path d="M-156,1178L-218,1314L-61,1298Z" fill="#8998b3" stroke="#8998b3" stroke-width="1.51"/><path d="M-201,-87L-211,128L-56,-7Z" fill="#ede7f3" stroke="#ede7f3" stroke-width="1.51"/><path d="M-173,202L-172,570L-134,397Z" fill="#cad5e9" stroke="#cad5e9" stroke-width="1.51"/><path d="M-173,202L-211,128L-172,570Z" fill="#d5daeb" stroke="#d5daeb" stroke-width="1.51"/><path d="M-170,718L-172,984L-137,872Z" fill="#9db7d8" stroke="#9db7d8" stroke-width="1.51"/><path d="M-172,984L-218,1314L-156,1178Z" fill="#90a3c2" stroke="#90a3c2" stroke-width="1.51"/><path d="M-172,570L-211,128L-170,718Z" fill="#c1d1e6" stroke="#c1d1e6" stroke-width="1.51"/><path d="M-211,128L-218,1314L-170,718Z" fill="#a7c3de" stroke="#a7c3de" stroke-width="1.51"/><path d="M-218,1314L-172,984L-170,718Z" fill="#97acd0" stroke="#97acd0" stroke-width="1.51"/></svg>